<mxfile host="app.diagrams.net" modified="2021-06-05T09:30:40.184Z" agent="5.0 (Windows NT 10.0; Win64; x64) AppleWebKit/537.36 (KHTML, like Gecko) Chrome/88.0.4324.182 Safari/537.36" etag="ZPUcrAzzGkjzufpFrr7H" version="14.7.6" type="github">
  <diagram id="x8S0_0ToHuIzWZEDL0l0" name="Page-1">
    <mxGraphModel dx="1227" dy="745" grid="1" gridSize="10" guides="1" tooltips="1" connect="1" arrows="1" fold="1" page="1" pageScale="1" pageWidth="3300" pageHeight="4681" math="0" shadow="0">
      <root>
        <mxCell id="0" />
        <mxCell id="1" parent="0" />
        <mxCell id="15zjXQKSgeEi5LZ_I-6a-1" style="edgeStyle=orthogonalEdgeStyle;rounded=0;orthogonalLoop=1;jettySize=auto;html=1;entryX=0.5;entryY=0;entryDx=0;entryDy=0;" edge="1" parent="1" source="15zjXQKSgeEi5LZ_I-6a-2" target="15zjXQKSgeEi5LZ_I-6a-5">
          <mxGeometry relative="1" as="geometry" />
        </mxCell>
        <mxCell id="15zjXQKSgeEi5LZ_I-6a-2" value="rows = LEN(data)" style="rounded=1;whiteSpace=wrap;html=1;" vertex="1" parent="1">
          <mxGeometry x="335" y="460" width="230" height="40" as="geometry" />
        </mxCell>
        <mxCell id="15zjXQKSgeEi5LZ_I-6a-3" value="" style="group" vertex="1" connectable="0" parent="1">
          <mxGeometry x="340" y="560" width="230" height="90" as="geometry" />
        </mxCell>
        <mxCell id="15zjXQKSgeEi5LZ_I-6a-4" value="" style="shape=hexagon;perimeter=hexagonPerimeter2;whiteSpace=wrap;html=1;fixedSize=1;" vertex="1" parent="15zjXQKSgeEi5LZ_I-6a-3">
          <mxGeometry width="230.00000000000003" height="90" as="geometry" />
        </mxCell>
        <mxCell id="15zjXQKSgeEi5LZ_I-6a-5" value="i" style="text;html=1;strokeColor=none;fillColor=none;align=center;verticalAlign=middle;whiteSpace=wrap;rounded=0;" vertex="1" parent="15zjXQKSgeEi5LZ_I-6a-3">
          <mxGeometry x="87.61904761904762" width="43.80952380952381" height="20" as="geometry" />
        </mxCell>
        <mxCell id="15zjXQKSgeEi5LZ_I-6a-6" value="0" style="text;html=1;strokeColor=none;fillColor=none;align=center;verticalAlign=middle;whiteSpace=wrap;rounded=0;" vertex="1" parent="15zjXQKSgeEi5LZ_I-6a-3">
          <mxGeometry x="10.952380952380953" y="35" width="43.80952380952381" height="20" as="geometry" />
        </mxCell>
        <mxCell id="15zjXQKSgeEi5LZ_I-6a-7" value="1" style="text;html=1;strokeColor=none;fillColor=none;align=center;verticalAlign=middle;whiteSpace=wrap;rounded=0;" vertex="1" parent="15zjXQKSgeEi5LZ_I-6a-3">
          <mxGeometry x="87.61904761904762" y="70" width="43.80952380952381" height="20" as="geometry" />
        </mxCell>
        <mxCell id="15zjXQKSgeEi5LZ_I-6a-8" value="&amp;lt;rows" style="text;html=1;strokeColor=none;fillColor=none;align=center;verticalAlign=middle;whiteSpace=wrap;rounded=0;" vertex="1" parent="15zjXQKSgeEi5LZ_I-6a-3">
          <mxGeometry x="164.2857142857143" y="35" width="43.80952380952381" height="20" as="geometry" />
        </mxCell>
        <mxCell id="15zjXQKSgeEi5LZ_I-6a-9" value="" style="edgeStyle=orthogonalEdgeStyle;rounded=0;orthogonalLoop=1;jettySize=auto;html=1;" edge="1" parent="1" source="15zjXQKSgeEi5LZ_I-6a-11" target="15zjXQKSgeEi5LZ_I-6a-13">
          <mxGeometry relative="1" as="geometry" />
        </mxCell>
        <mxCell id="15zjXQKSgeEi5LZ_I-6a-10" style="edgeStyle=orthogonalEdgeStyle;rounded=0;orthogonalLoop=1;jettySize=auto;html=1;" edge="1" parent="1" source="15zjXQKSgeEi5LZ_I-6a-11">
          <mxGeometry relative="1" as="geometry">
            <mxPoint x="285" y="760" as="targetPoint" />
          </mxGeometry>
        </mxCell>
        <mxCell id="15zjXQKSgeEi5LZ_I-6a-11" value="username == data[i][0]" style="rhombus;whiteSpace=wrap;html=1;" vertex="1" parent="1">
          <mxGeometry x="375.5" y="710" width="160" height="100" as="geometry" />
        </mxCell>
        <mxCell id="15zjXQKSgeEi5LZ_I-6a-12" value="" style="edgeStyle=orthogonalEdgeStyle;rounded=0;orthogonalLoop=1;jettySize=auto;html=1;" edge="1" parent="1" source="15zjXQKSgeEi5LZ_I-6a-4" target="15zjXQKSgeEi5LZ_I-6a-11">
          <mxGeometry relative="1" as="geometry" />
        </mxCell>
        <mxCell id="15zjXQKSgeEi5LZ_I-6a-22" style="edgeStyle=orthogonalEdgeStyle;rounded=0;orthogonalLoop=1;jettySize=auto;html=1;entryX=1;entryY=0.5;entryDx=0;entryDy=0;" edge="1" parent="1" source="15zjXQKSgeEi5LZ_I-6a-13" target="15zjXQKSgeEi5LZ_I-6a-21">
          <mxGeometry relative="1" as="geometry" />
        </mxCell>
        <mxCell id="15zjXQKSgeEi5LZ_I-6a-24" style="edgeStyle=orthogonalEdgeStyle;rounded=0;orthogonalLoop=1;jettySize=auto;html=1;entryX=0.5;entryY=1;entryDx=0;entryDy=0;" edge="1" parent="1" source="15zjXQKSgeEi5LZ_I-6a-13" target="15zjXQKSgeEi5LZ_I-6a-23">
          <mxGeometry relative="1" as="geometry" />
        </mxCell>
        <mxCell id="15zjXQKSgeEi5LZ_I-6a-13" value="username == data[i][2]" style="rhombus;whiteSpace=wrap;html=1;" vertex="1" parent="1">
          <mxGeometry x="385" y="860" width="140" height="100" as="geometry" />
        </mxCell>
        <mxCell id="15zjXQKSgeEi5LZ_I-6a-14" value="True" style="text;html=1;align=center;verticalAlign=middle;resizable=0;points=[];autosize=1;strokeColor=none;" vertex="1" parent="1">
          <mxGeometry x="335.5" y="740" width="40" height="20" as="geometry" />
        </mxCell>
        <mxCell id="15zjXQKSgeEi5LZ_I-6a-15" value="True" style="text;html=1;align=center;verticalAlign=middle;resizable=0;points=[];autosize=1;strokeColor=none;" vertex="1" parent="1">
          <mxGeometry x="340" y="880" width="40" height="20" as="geometry" />
        </mxCell>
        <mxCell id="15zjXQKSgeEi5LZ_I-6a-16" value="False" style="text;html=1;align=center;verticalAlign=middle;resizable=0;points=[];autosize=1;strokeColor=none;" vertex="1" parent="1">
          <mxGeometry x="460" y="810" width="40" height="20" as="geometry" />
        </mxCell>
        <mxCell id="15zjXQKSgeEi5LZ_I-6a-19" value="" style="edgeStyle=orthogonalEdgeStyle;rounded=0;orthogonalLoop=1;jettySize=auto;html=1;" edge="1" parent="1" source="15zjXQKSgeEi5LZ_I-6a-18" target="15zjXQKSgeEi5LZ_I-6a-2">
          <mxGeometry relative="1" as="geometry" />
        </mxCell>
        <mxCell id="15zjXQKSgeEi5LZ_I-6a-18" value="FUNCTION check_usernameID(data, username)" style="shape=process;whiteSpace=wrap;html=1;backgroundOutline=1;" vertex="1" parent="1">
          <mxGeometry x="330" y="310" width="240" height="70" as="geometry" />
        </mxCell>
        <mxCell id="15zjXQKSgeEi5LZ_I-6a-20" value="RETURN 1" style="ellipse;whiteSpace=wrap;html=1;" vertex="1" parent="1">
          <mxGeometry x="190" y="720" width="90" height="80" as="geometry" />
        </mxCell>
        <mxCell id="15zjXQKSgeEi5LZ_I-6a-21" value="RETURN 1" style="ellipse;whiteSpace=wrap;html=1;" vertex="1" parent="1">
          <mxGeometry x="190" y="870" width="90" height="80" as="geometry" />
        </mxCell>
        <mxCell id="15zjXQKSgeEi5LZ_I-6a-26" style="edgeStyle=orthogonalEdgeStyle;rounded=0;orthogonalLoop=1;jettySize=auto;html=1;entryX=1;entryY=0.5;entryDx=0;entryDy=0;" edge="1" parent="1" source="15zjXQKSgeEi5LZ_I-6a-23" target="15zjXQKSgeEi5LZ_I-6a-4">
          <mxGeometry relative="1" as="geometry">
            <Array as="points">
              <mxPoint x="620" y="605" />
              <mxPoint x="620" y="605" />
            </Array>
          </mxGeometry>
        </mxCell>
        <mxCell id="15zjXQKSgeEi5LZ_I-6a-23" value="i" style="ellipse;whiteSpace=wrap;html=1;aspect=fixed;" vertex="1" parent="1">
          <mxGeometry x="630" y="585" width="40" height="40" as="geometry" />
        </mxCell>
        <mxCell id="15zjXQKSgeEi5LZ_I-6a-25" value="False" style="text;html=1;align=center;verticalAlign=middle;resizable=0;points=[];autosize=1;strokeColor=none;" vertex="1" parent="1">
          <mxGeometry x="525" y="890" width="40" height="20" as="geometry" />
        </mxCell>
        <mxCell id="15zjXQKSgeEi5LZ_I-6a-27" value="RETURN 0" style="ellipse;whiteSpace=wrap;html=1;" vertex="1" parent="1">
          <mxGeometry x="190" y="565" width="90" height="80" as="geometry" />
        </mxCell>
        <mxCell id="15zjXQKSgeEi5LZ_I-6a-28" style="edgeStyle=orthogonalEdgeStyle;rounded=0;orthogonalLoop=1;jettySize=auto;html=1;entryX=1;entryY=0.5;entryDx=0;entryDy=0;" edge="1" parent="1" source="15zjXQKSgeEi5LZ_I-6a-4" target="15zjXQKSgeEi5LZ_I-6a-27">
          <mxGeometry relative="1" as="geometry" />
        </mxCell>
      </root>
    </mxGraphModel>
  </diagram>
</mxfile>
